<svg xmlns="http://www.w3.org/2000/svg" viewBox="-16 0 619 182" fill="none">
  <path fill-rule="evenodd" clip-rule="evenodd" d="M374.1 142.1c-34.5 25.5-84.6 39.1-127.7 39.1-60.4 0-114.8-22.3-155.9-59.5-3.2-2.9-.3-6.9 3.6-4.6 44.4 25.8 99.3 41.3 156.1 41.3 38.3 0 80.4-7.9 119.1-24.4 5.8-2.5 10.7 3.8 4.8 8.1z" fill="#FF9900"/>
  <path fill-rule="evenodd" clip-rule="evenodd" d="M388.2 126c-4.4-5.6-29-2.7-40.1-1.3-3.4.4-3.9-2.5-0.8-4.7 19.6-13.8 51.8-9.8 55.6-5.2 3.8 4.7-1 37-19.4 52.4-2.8 2.4-5.5 1.1-4.3-2 4.1-10.4 13.4-33.6 9-39.2z" fill="#FF9900"/>
  <path fill-rule="evenodd" clip-rule="evenodd" d="M349.5 19.4V6.3c0-2 1.5-3.3 3.3-3.3h58.3c1.9 0 3.4 1.4 3.4 3.3v11.2c0 1.9-1.6 4.3-4.4 8.1l-30.2 43.1c11.2-.3 23.1 1.4 33.3 7.1 2.3 1.3 2.9 3.2 3.1 5v14c0 1.9-2.1 4.1-4.3 2.9-17.9-9.4-41.7-10.4-61.5.1-2 1.1-4.2-.1-4.2-2.1v-13.3c0-2.1 0-5.8 2.2-9l35-50.2h-30.5c-1.9 0-3.4-1.3-3.5-3.2zM127.1 101.5h-17.7c-1.7-.1-3-1.4-3.2-3V6.5c0-1.8 1.5-3.3 3.4-3.3h16.5c1.7.1 3.1 1.5 3.2 3.1v12.8h.3c4.3-12.3 12.5-18 23.5-18 11.2 0 18.2 5.7 23.2 18 4.3-12.3 14.1-18 24.7-18 7.5 0 15.7 3.1 20.7 10.1 5.7 7.8 4.5 19.1 4.5 29l-.1 58.5c0 1.8-1.5 3.3-3.4 3.3h-17.7c-1.8-.1-3.2-1.6-3.2-3.3V49.1c0-3.9.4-13.7-.5-17.4-1.3-6.2-5.3-8-10.5-8-4.3 0-8.8 2.9-10.7 7.5-1.8 4.6-1.6 12.3-1.6 17.9v49.4c0 1.8-1.5 3.3-3.4 3.3h-17.7c-1.8-.1-3.2-1.6-3.2-3.3l-.1-49.4c0-10.3 1.7-25.5-11-25.5-12.8 0-12.3 14.8-12.3 25.5v49.4c0 1.8-1.5 3.3-3.4 3.3zM448.4.5c26.3 0 40.6 22.6 40.6 51.3 0 27.8-15.8 49.8-40.6 49.8-25.8 0-39.9-22.6-39.9-50.7 0-28.2 14.3-50.4 39.9-50.4zm.1 18.6c-13 0-13.8 17.8-13.8 28.9 0 11.1-.2 34.8 13.7 34.8 13.7 0 14.3-19.1 14.3-30.7 0-7.7-.3-16.8-2.6-24.1-2-6.3-5.9-8.9-11.6-8.9zM521.3 101.5h-17.6c-1.8-.1-3.2-1.6-3.2-3.3l-.1-92c.2-1.7 1.7-3 3.4-3h16.4c1.6.1 2.9 1.2 3.2 2.7v14.1h.3c5-12.8 12-18.9 24.3-18.9 8 0 15.8 2.9 20.8 10.9 4.7 7.5 4.7 20.1 4.7 29.1v57.5c-.2 1.7-1.7 3-3.4 3H553c-1.6-.1-2.9-1.3-3.2-2.9V48c0-10.2 1.2-25-11.2-25-4.3 0-8.3 2.9-10.3 7.3-2.5 5.6-2.8 11.1-2.8 17.7v50.2c0 1.8-1.6 3.3-3.4 3.3h.2zM294.7 57.7c0 7.1.2 13-3.4 19.3-2.9 5.1-7.5 8.2-12.7 8.2-7 0-11.2-5.4-11.2-13.3 0-15.6 14-18.5 27.3-18.5v4.3zm18.5 44.7c-1.2 1.1-3 1.2-4.4.4-6.1-5.1-7.2-7.5-10.6-12.3-10.1 10.3-17.3 13.4-30.4 13.4-15.5 0-27.6-9.6-27.6-28.7 0-15 8.1-25.1 19.6-30.1 10-4.3 24-5.1 34.7-6.3V36c0-4.7.4-10.3-2.4-14.3-2.4-3.6-7.1-5.1-11.2-5.1-7.6 0-14.4 3.9-16.1 12-.3 1.8-1.6 3.6-3.4 3.7l-17.4-1.9c-1.6-.4-3.4-1.6-2.9-4C244.4 6 263.5.5 280.8.5c8.9 0 20.5 2.4 27.5 9 8.9 8.4 8 19.6 8 31.8V68c0 8.3 3.4 11.9 6.7 16.4 1.1 1.6 1.4 3.5-.1 4.7l-9.6 8.3h-.1zM38.7 57.7c0 7.1.2 13-3.4 19.3-2.9 5.1-7.5 8.2-12.6 8.2-7 0-11.2-5.4-11.2-13.3 0-15.6 14-18.5 27.2-18.5v4.3zm18.5 44.7c-1.2 1.1-3 1.2-4.4.4-6.1-5.1-7.2-7.5-10.6-12.3-10.1 10.3-17.3 13.4-30.4 13.4C-3.7 103.9-15.8 94.3-15.8 75.2c0-15 8.1-25.1 19.6-30.1 10-4.3 24-5.1 34.7-6.3V36c0-4.7.4-10.3-2.4-14.3-2.4-3.6-7.1-5.1-11.2-5.1-7.6 0-14.4 3.9-16.1 12-.3 1.8-1.6 3.6-3.4 3.7L-11.9 30.4c-1.6-.4-3.4-1.6-2.9-4C-11.6 6 7.5.5 24.8.5c8.9 0 20.5 2.4 27.5 9 8.9 8.4 8 19.6 8 31.8V68c0 8.3 3.4 11.9 6.7 16.4 1.1 1.6 1.4 3.5-.1 4.7l-9.6 8.3h-.1z" fill="#FFFFFF"/>
</svg>
