<?xml version="1.0" encoding="UTF-8"?>
<svg id="Layer_2" data-name="Layer 2" xmlns="http://www.w3.org/2000/svg" xmlns:xlink="http://www.w3.org/1999/xlink" viewBox="0 0 962.46 150.89">
  <defs>
    <style>
      .cls-1 {
        fill: url(#linear-gradient);
      }

      .cls-1, .cls-2, .cls-3 {
        stroke-width: 0px;
      }

      .cls-2 {
        fill: url(#_Безымянный_градиент_9);
      }

      .cls-3 {
        fill: #243242;
      }
    </style>
    <linearGradient id="_Безымянный_градиент_9" data-name="Безымянный градиент 9" x1="32.65" y1="90.4" x2="32.65" y2="51.14" gradientUnits="userSpaceOnUse">
      <stop offset=".16" stop-color="#0fb6ff"/>
      <stop offset=".26" stop-color="#0ea9f0"/>
      <stop offset=".44" stop-color="#0d89ca"/>
      <stop offset=".7" stop-color="#0c558b"/>
      <stop offset="1" stop-color="#0b113a"/>
    </linearGradient>
    <linearGradient id="linear-gradient" x1="0" y1="75.44" x2="133.61" y2="75.44" gradientUnits="userSpaceOnUse">
      <stop offset="0" stop-color="#0af"/>
      <stop offset="1" stop-color="#3ad9ff"/>
    </linearGradient>
  </defs>
  <g id="_Слой_1" data-name="Слой 1">
    <g>
      <g>
        <polygon class="cls-2" points="40.89 51.14 40.89 90.4 24.41 90.4 24.41 60.66 40.89 51.14"/>
        <path class="cls-1" d="M133.61,94.99v16.4c0,1.62-.87,3.12-2.29,3.95l-59.1,34.12c-1.69.94-3.57,1.43-5.42,1.43s-3.76-.49-5.42-1.43L4.29,116.47c-2.67-1.5-4.29-4.33-4.29-7.37v-39.08c0-3.08,1.62-5.87,4.25-7.41L61.39,29.61c3.35-1.92,7.49-1.92,10.83,0l32.69,18.88c1.32.79,2.41,1.88,3.12,3.16l-15.31,8.84-25.92-14.97-50.33,29.04v29.94l50.33,29.04,66.81-38.56ZM117.14,46.39l15.31-8.84c-.71-1.28-1.81-2.37-3.12-3.12l-20.13-11.62-16.48-9.52L72.19,1.44c-3.31-1.92-7.45-1.92-10.8,0l-20.5,11.85-16.48,9.48v.04L2.26,35.56c-1.39.83-2.26,2.29-2.26,3.95v16.4L66.81,17.35l50.33,29.04ZM117.14,76.29l-50.34,29.08-25.91-14.97v-5.25h-16.48v9.84c0,3.05,1.62,5.87,4.28,7.41l32.7,18.88c1.65.94,3.53,1.43,5.41,1.43s3.73-.49,5.39-1.43l57.13-32.99c2.63-1.54,4.28-4.33,4.28-7.41v-14.11l-16.47,9.52Z"/>
      </g>
      <g>
        <path class="cls-3" d="M229.96,94.38c-.77,2.53-2.74,5.03-5.89,7.51-3.18,2.48-7.16,3.7-11.97,3.7-7.11,0-12.56-2.36-16.35-7.11-3.81-4.77-5.71-11.13-5.71-19.11s1.87-13.94,5.61-18.26c3.72-4.3,9.21-6.45,16.44-6.45,3.04,0,5.8.42,8.26,1.24,2.48.82,4.33,1.73,5.52,2.76,1.19,1.01,2.29,2.15,3.23,3.41.96,1.26,1.5,2.2,1.61,2.76.14.56.26.98.4,1.24h24.88l-.56-3.23c-.26-2.03-1.26-4.56-3.04-7.6-1.78-3.06-4.07-6.06-6.85-9.05-2.78-2.97-7.11-5.5-13-7.6-5.89-2.08-12.72-3.13-20.44-3.13-14.71,0-26.17,4-34.4,11.97-8.37,8.11-12.56,18.76-12.56,31.95,0,14.06,4.12,25.14,12.37,33.26,8.23,8.11,19.76,12.16,34.59,12.16,7.6,0,14.31-1.24,20.14-3.69,5.82-2.48,10.15-5.19,12.93-8.19,2.78-2.97,5.1-6.43,6.95-10.36,1.82-3.93,2.88-6.64,3.13-8.16.26-1.52.44-2.74.56-3.62h-24.7l-1.15,3.62Z"/>
        <path class="cls-3" d="M264.54,8.81v114.08h24.51V3.65l-24.51,5.17Z"/>
        <path class="cls-3" d="M384.52,48.19c-8.68-8.49-20.56-12.75-35.64-12.75s-26.92,4.26-35.52,12.75c-8.75,8.49-13.12,19.13-13.12,31.92s4.33,23.29,13,31.85c5.35,5.26,11.93,8.91,19.71,10.92,4.84,1.26,10.15,1.89,15.93,1.89s11.18-.63,16.07-1.89c7.76-2.01,14.31-5.61,19.67-10.83,8.63-8.37,12.93-19.01,12.93-31.95s-4.35-23.43-13.03-31.92ZM366.46,98.26c-4.12,4.89-9.96,7.32-17.59,7.32s-13.61-2.41-17.68-7.23c-4.05-4.79-6.08-10.87-6.08-18.24s2.03-13.75,6.08-18.43c4.07-4.7,9.96-7.04,17.68-7.04s13.63,2.34,17.68,7.04c4.07,4.68,6.08,10.83,6.08,18.43s-2.06,13.28-6.17,18.15Z"/>
        <path class="cls-3" d="M466.74,37.37v38.19c0,4.93-.16,8.98-.49,12.07-.3,3.11-1.08,6.22-2.27,9.33-1.22,3.09-3.11,5.38-5.71,6.83-2.6,1.45-5.99,2.2-10.17,2.2-6.22,0-10.71-1.75-13.49-5.24-2.78-3.48-4.19-9.14-4.19-17v-46.38h-24.51v46.38c0,13.8,2.85,24.11,8.54,30.87,3.25,3.86,7.69,6.62,13.35,8.28,4.3,1.26,9.28,1.89,14.97,1.89h1.52c3.81-.05,7.3-.68,10.43-1.89,5.1-1.94,9.28-5.43,12.58-10.45v10.45h23.95V37.37h-24.51Z"/>
        <path class="cls-3" d="M572.21,8.81v39.01c-5.57-7.48-13.35-11.48-23.36-12-1.4-.12-2.81-.19-4.19-.19-12.93,0-23.32,3.93-31.17,11.79-8.63,8.63-12.93,19.57-12.93,32.88s4.09,24.51,12.28,32.41c8.16,7.93,18.52,11.88,31.06,11.88,1.78,0,3.55-.07,5.33-.19,10.38-.63,18.24-5.07,23.57-13.31v11.79h23.95V3.65l-24.53,5.17ZM566.32,98.75c-4.3,4.3-10.01,6.45-17.1,6.45s-12.51-2.15-17-6.45c-4.51-4.3-6.76-10.45-6.76-18.45s2.22-14.34,6.66-18.71c4.42-4.37,10.13-6.57,17.1-6.57s12.96,2.01,17.19,5.99c4.26,4,6.38,10.36,6.38,19.11,0,8.11-2.15,14.34-6.48,18.64Z"/>
        <path class="cls-3" d="M671.63,94.38c-.75,2.53-2.71,5.03-5.89,7.51-3.16,2.48-7.16,3.7-11.97,3.7-7.09,0-12.53-2.36-16.35-7.11-3.79-4.77-5.71-11.13-5.71-19.11s1.87-13.94,5.61-18.26c3.74-4.3,9.21-6.45,16.44-6.45,3.04,0,5.8.42,8.28,1.24,2.46.82,4.3,1.73,5.5,2.76,1.22,1.01,2.29,2.15,3.25,3.41.94,1.26,1.47,2.2,1.61,2.76.12.56.23.98.37,1.24h24.91l-.58-3.23c-.26-2.03-1.26-4.56-3.04-7.6-1.78-3.06-4.05-6.06-6.83-9.05-2.81-2.97-7.13-5.5-13.03-7.6-5.89-2.08-12.7-3.13-20.44-3.13-14.71,0-26.17,4-34.4,11.97-8.37,8.11-12.54,18.76-12.54,31.95,0,14.06,4.12,25.14,12.35,33.26,8.23,8.11,19.76,12.16,34.59,12.16,7.6,0,14.31-1.24,20.16-3.69,5.82-2.48,10.13-5.19,12.91-8.19,2.78-2.97,5.1-6.43,6.95-10.36,1.85-3.93,2.88-6.64,3.13-8.16.26-1.52.44-2.74.58-3.62h-24.72l-1.15,3.62Z"/>
        <path class="cls-3" d="M775.98,37.37v12.54c-5.45-8.86-13.75-13.56-24.91-14.08-1.38-.12-2.78-.19-4.16-.19-12.93,0-23.32,3.93-31.17,11.79-8.63,8.63-12.93,19.57-12.93,32.88s4.09,24.51,12.25,32.41c8.19,7.93,18.55,11.88,31.08,11.88,1.78,0,3.55-.07,5.33-.19,10.38-.63,18.24-5.07,23.57-13.31v11.79h24.51V37.37h-23.57ZM768.56,98.75c-4.3,4.3-10.01,6.45-17.1,6.45s-12.51-2.15-17.03-6.45c-4.49-4.3-6.73-10.45-6.73-18.45s2.22-14.34,6.64-18.71c4.44-4.37,10.15-6.57,17.12-6.57s12.96,2.01,17.19,5.99c4.26,4,6.38,10.36,6.38,19.11,0,8.11-2.18,14.34-6.48,18.64Z"/>
        <path class="cls-3" d="M962.46,80.3c0-13.54-3.91-24.42-11.69-32.6-7.79-8.16-18.66-12.25-32.6-12.25s-25.35,4.12-33.44,12.37c-8.11,8.35-12.18,19.18-12.18,32.48s4.23,24.37,12.65,32.41c8.42,8.04,19.48,12.07,33.16,12.07,6.85,0,13-1.01,18.45-3.04,5.45-2.01,9.57-4.28,12.35-6.74,2.78-2.48,5.17-5.33,7.13-8.56,1.96-3.23,3.16-5.47,3.6-6.76.44-1.26.72-2.27.86-3.04h-24.53l-.37.96c-.26.63-.8,1.4-1.61,2.29-.82.87-1.85,1.73-3.04,2.55-1.22.84-2.92,1.57-5.15,2.2-2.2.63-4.7.94-7.51.94-5.94,0-10.99-1.64-15.11-4.93-4.12-3.3-6.43-7.72-6.92-13.31h65.58c.23-2.41.37-4.75.37-7.04ZM938.7,71h-42.19c.75-4.82,3.06-8.75,6.92-11.79,3.88-3.04,8.84-4.56,14.92-4.56s10.85,1.43,14.64,4.28c3.81,2.85,5.71,6.69,5.71,11.51v.56Z"/>
        <path class="cls-3" d="M865.86,37.37v24.51h-27.77c-.6,0-1.09.49-1.09,1.09v59.92h-24.51V57.99c0-11.39,9.23-20.63,20.63-20.63h32.75Z"/>
      </g>
    </g>
  </g>
</svg>