<?xml version="1.0" encoding="UTF-8"?>
<svg id="Layer_2" data-name="Layer 2" xmlns="http://www.w3.org/2000/svg" xmlns:xlink="http://www.w3.org/1999/xlink" viewBox="0 0 369.94 417.77">
  <defs>
    <style>
      .cls-1 {
        fill: url(#linear-gradient);
      }

      .cls-1, .cls-2 {
        stroke-width: 0px;
      }

      .cls-2 {
        fill: url(#_Безымянный_градиент_9);
      }
    </style>
    <linearGradient id="_Безымянный_градиент_9" data-name="Безымянный градиент 9" x1="90.41" y1="250.3" x2="90.41" y2="141.6" gradientUnits="userSpaceOnUse">
      <stop offset=".16" stop-color="#0fb6ff"/>
      <stop offset=".26" stop-color="#0ea9f0"/>
      <stop offset=".44" stop-color="#0d89ca"/>
      <stop offset=".7" stop-color="#0c558b"/>
      <stop offset="1" stop-color="#0b113a"/>
    </linearGradient>
    <linearGradient id="linear-gradient" x1="0" y1="208.88" x2="369.94" y2="208.88" gradientUnits="userSpaceOnUse">
      <stop offset="0" stop-color="#0af"/>
      <stop offset="1" stop-color="#3ad9ff"/>
    </linearGradient>
  </defs>
  <g id="_Слой_1" data-name="Слой 1">
    <g>
      <polygon class="cls-2" points="113.23 141.6 113.23 250.3 67.59 250.3 67.59 167.95 113.23 141.6"/>
      <path class="cls-1" d="M369.94,263v45.41c0,4.48-2.4,8.64-6.35,10.94l-163.62,94.46c-4.69,2.6-9.89,3.96-15,3.96s-10.41-1.35-15-3.96L11.87,322.47c-7.4-4.17-11.87-11.98-11.87-20.41v-108.21c0-8.54,4.48-16.25,11.77-20.52l158.2-91.34c9.27-5.31,20.73-5.31,29.99,0l90.51,52.28c3.64,2.19,6.66,5.21,8.64,8.75l-42.39,24.48-71.76-41.45L45.62,206.45v82.9l139.35,80.4,184.97-106.75ZM324.32,128.44l42.39-24.48c-1.98-3.54-5-6.56-8.64-8.64l-55.72-32.18-45.62-26.35L199.86,3.98c-9.17-5.31-20.62-5.31-29.89,0l-56.76,32.81-45.62,26.25v.1L6.25,98.45c-3.85,2.29-6.25,6.35-6.25,10.94v45.41L184.97,48.04l139.35,80.4ZM324.33,211.24l-139.37,80.52-71.73-41.45v-14.54h-45.63v27.25c0,8.44,4.48,16.25,11.86,20.51l90.54,52.29c4.56,2.6,9.77,3.97,14.97,3.97s10.32-1.36,14.93-3.97l158.18-91.35c7.29-4.26,11.86-11.98,11.86-20.51v-39.06l-45.59,26.36Z"/>
    </g>
  </g>
</svg>