<svg width="600" height="97" viewBox="0 0 600 97" fill="none" xmlns="http://www.w3.org/2000/svg">
<path d="M92.828 0.477001C102.52 0.477001 110.714 3.774 117.309 10.269C123.904 16.764 127.201 24.758 127.201 34.25C127.201 43.643 123.904 51.636 117.409 58.231C110.914 64.826 102.92 68.023 93.428 68.023C83.936 68.023 75.842 64.726 69.247 58.231C62.652 51.736 59.455 43.842 59.455 34.549C59.455 28.354 60.954 22.658 63.952 17.362C66.95 12.066 71.046 7.969 76.143 4.972C81.237 1.976 86.833 0.477001 92.828 0.477001ZM93.128 6.772C88.332 6.772 83.835 7.971 79.638 10.469C75.341 12.967 72.044 16.264 69.646 20.461C67.248 24.658 66.049 29.354 66.049 34.55C66.049 42.144 68.647 48.639 74.043 53.935C79.339 59.231 85.734 61.829 93.228 61.829C98.224 61.829 102.821 60.63 107.117 58.232C111.314 55.834 114.711 52.536 117.009 48.34C119.407 44.143 120.606 39.447 120.606 34.351C120.606 29.255 119.407 24.659 117.009 20.462C114.611 16.365 111.313 13.068 106.917 10.57C102.521 7.971 97.924 6.772 93.128 6.772Z" fill="#1D1E1B"/>
<path d="M144.488 68.524V0.277H145.987L191.451 52.637V0.277H198.246V68.524H196.647L151.582 16.864V68.524H144.488Z" fill="#1D1E1B"/>
<path d="M223.127 0.277H216.732V68.424H223.127V0.277Z" fill="#1D1E1B"/>
<path d="M447.652 0.277H434.562L416.176 49.539L453.247 49.739L460.341 68.225H473.731L447.652 0.277ZM432.164 41.545L441.257 18.263L450.25 41.545H432.164Z" fill="#1D1E1B"/>
<path d="M487.721 0.277H500.611V55.734H526.291V68.025H487.721V0.277Z" fill="#1D1E1B"/>
<path d="M540.08 0.277H552.97V55.734H578.65V68.025H540.08V0.277Z" fill="#1D1E1B"/>
<path d="M436.261 96.802C436.261 96.802 404.686 85.411 397.691 66.526C389.897 45.342 418.775 40.546 448.352 41.346C464.24 41.846 483.724 44.244 483.724 44.244C483.724 44.244 437.76 50.139 421.173 63.529C404.985 76.518 436.261 96.802 436.261 96.802Z" fill="#1D1E1B"/>
<path d="M299.168 52.037C293.173 58.832 285.678 62.229 276.885 62.229C268.691 62.229 261.797 59.631 256.401 54.335C251.005 49.039 248.307 42.444 248.307 34.65C248.307 29.454 249.506 24.758 251.904 20.561C254.302 16.364 257.699 13.067 262.096 10.569C266.493 8.071 271.289 6.872 276.385 6.872C281.081 6.872 285.378 7.771 289.375 9.67C293.172 11.469 296.37 14.067 299.167 17.564V8.771C297.169 7.172 295.07 5.174 292.672 4.075C287.776 1.677 282.38 0.478001 276.285 0.478001C266.293 0.478001 257.999 3.676 251.304 10.17C244.709 16.665 241.312 24.559 241.312 34.051C241.312 43.044 244.01 50.738 249.506 57.033C256.001 64.527 264.994 68.324 276.285 68.324C282.18 68.324 287.576 67.225 292.472 64.927C294.87 63.828 297.068 61.929 299.067 60.331V52.037H299.168Z" fill="#1D1E1B"/>
<path d="M24.581 31.153C9.193 27.955 6.295 23.959 6.295 17.663V17.463C6.295 10.768 12.69 5.972 21.383 5.972C28.677 5.972 34.573 8.17 40.268 13.066L40.768 13.566L40.868 13.366V5.872C34.973 1.975 29.077 0.276001 21.483 0.276001C9.193 0.276001 0 7.87 0 17.962V18.162C0 28.354 6.495 33.85 22.383 37.047C37.271 40.045 40.169 43.942 40.169 50.137V50.337C40.169 57.531 33.674 62.528 24.481 62.528C15.488 62.528 9.093 59.93 1.799 53.135L1.299 52.635L1.199 52.735V60.529C8.293 65.825 15.488 68.223 24.281 68.223C37.271 68.223 46.364 60.729 46.364 49.937V49.737C46.364 39.847 39.869 34.251 24.581 31.153Z" fill="#1D1E1B"/>
<path d="M396.692 0.277L381.204 46.442L380.904 47.441L380.604 46.442L365.316 0.0779991H352.926L337.638 46.442L337.338 47.441L336.938 46.442L321.45 0.277H306.062L330.543 68.424H343.233L358.521 23.959L358.921 23.06L359.221 23.959L374.609 68.424H387.199L411.68 0.277H396.692Z" fill="#1D1E1B"/>
<path d="M592.066 15.47C587.801 15.47 584.331 12 584.331 7.735C584.331 3.47 587.801 0 592.066 0C596.331 0 599.801 3.47 599.801 7.735C599.801 12 596.331 15.47 592.066 15.47ZM592.066 1.067C588.389 1.067 585.397 4.059 585.397 7.736C585.397 11.413 588.389 14.405 592.066 14.405C595.743 14.405 598.735 11.413 598.735 7.736C598.735 4.059 595.743 1.067 592.066 1.067Z" fill="#1D1E1B"/>
<path d="M588.638 3.3C588.688 3.244 588.751 3.256 588.809 3.256C589.888 3.256 590.968 3.247 592.047 3.261C592.315 3.264 592.585 3.268 592.853 3.293C593.305 3.334 593.753 3.404 594.179 3.574C594.582 3.734 594.936 3.962 595.183 4.327C595.335 4.552 595.442 4.802 595.488 5.069C595.58 5.611 595.591 6.151 595.409 6.68C595.252 7.134 594.956 7.474 594.552 7.726C594.352 7.85 594.139 7.941 593.899 8.02C593.99 8.056 594.069 8.082 594.144 8.117C594.403 8.238 594.625 8.411 594.805 8.631C595.184 9.093 595.443 9.62601 595.69 10.165C595.745 10.285 595.806 10.402 595.864 10.52C596.113 11.019 596.362 11.517 596.61 12.016C596.636 12.069 596.66 12.123 596.681 12.17C596.674 12.186 596.672 12.191 596.669 12.196C596.665 12.2 596.66 12.206 596.655 12.206C595.894 12.228 595.133 12.21 594.372 12.215C594.33 12.215 594.288 12.22 594.244 12.196C594.193 12.157 594.176 12.091 594.147 12.033C593.777 11.293 593.411 10.552 593.039 9.814C592.926 9.589 592.79 9.378 592.609 9.199C592.419 9.011 592.188 8.916 591.927 8.868C591.617 8.812 591.307 8.849 591.001 8.836C590.946 8.901 590.968 8.97 590.967 9.033C590.966 10.01 590.966 10.988 590.965 11.965C590.965 12.036 590.977 12.109 590.954 12.163C590.915 12.215 590.872 12.215 590.83 12.215C590.123 12.215 589.415 12.214 588.708 12.214C588.691 12.214 588.673 12.208 588.659 12.205C588.652 12.199 588.648 12.195 588.644 12.19C588.64 12.186 588.635 12.181 588.634 12.176C588.63 12.146 588.625 12.117 588.625 12.087C588.625 9.173 588.626 6.259 588.627 3.345C588.625 3.33 588.634 3.313 588.638 3.3ZM590.972 7.204C591.028 7.208 591.068 7.214 591.109 7.214C591.427 7.214 591.745 7.21 592.062 7.215C592.201 7.217 592.338 7.202 592.47 7.168C592.823 7.079 593.087 6.885 593.183 6.512C593.256 6.228 593.255 5.94 593.181 5.661C593.114 5.41 592.967 5.209 592.714 5.103C592.547 5.033 592.374 4.989 592.193 4.987C591.827 4.983 591.462 4.984 591.096 4.984C591.056 4.984 591.011 4.974 590.972 5.019C590.972 5.734 590.972 6.458 590.972 7.204Z" fill="#1D1E1B"/>
</svg>
